<?xml version="1.0" standalone="no"?>
<!DOCTYPE svg PUBLIC "-//W3C//DTD SVG 20010904//EN"
 "http://www.w3.org/TR/2001/REC-SVG-20010904/DTD/svg10.dtd">
<svg version="1.0" xmlns="http://www.w3.org/2000/svg"
 width="89.000000pt" height="102.000000pt" viewBox="0 0 89.000000 102.000000"
 preserveAspectRatio="xMidYMid meet">
<metadata>
Created by potrace 1.11, written by Peter Selinger 2001-2013
</metadata>
<g transform="translate(0.000000,102.000000) scale(0.100000,-0.100000)"
fill="#000000" stroke="none">
<path d="M545 996 c-112 -37 -239 -120 -323 -211 -110 -121 -215 -363 -215
-500 0 -105 29 -157 104 -189 68 -28 357 -64 662 -81 l107 -6 0 24 c0 24 -1
24 -137 31 -288 14 -586 57 -635 90 -66 45 -72 137 -17 293 85 241 192 368
397 472 71 36 134 48 174 32 19 -7 32 -25 47 -66 25 -67 26 -85 5 -85 -9 0
-24 20 -37 50 -11 28 -25 50 -29 50 -13 0 -9 -34 8 -75 10 -25 12 -41 6 -47
-15 -15 -29 -2 -48 47 -9 25 -23 45 -30 45 -19 0 -18 -14 7 -61 21 -43 20 -72
-4 -63 -8 3 -23 23 -32 45 -21 47 -45 70 -45 45 0 -9 9 -34 20 -56 25 -48 25
-60 3 -60 -10 0 -29 18 -43 43 l-25 42 -3 -50 c-2 -27 -8 -55 -13 -62 -6 -6
-32 -13 -57 -15 l-47 -3 -14 -153 c-9 -106 -10 -157 -3 -164 20 -20 61 2 92
48 60 87 151 131 252 122 66 -6 117 -29 168 -79 l40 -39 0 39 c0 35 -5 43 -42
71 -129 94 -322 73 -429 -48 l-41 -47 6 60 c4 33 9 79 12 103 l5 42 58 0 c32
0 79 6 105 14 32 10 57 12 78 5 66 -18 160 24 166 76 6 47 -54 218 -88 250
-35 33 -103 42 -165 21z m213 -244 c4 -24 -46 -55 -81 -50 -34 5 -26 30 18 55
46 26 59 25 63 -5z"/>
<path d="M745 278 c-38 -16 -73 -21 -147 -21 -54 0 -98 -4 -98 -8 0 -14 77
-49 128 -58 96 -19 182 21 182 85 0 28 0 28 -65 2z"/>
</g>
</svg>
